<svg xmlns="http://www.w3.org/2000/svg" xmlns:xlink="http://www.w3.org/1999/xlink">
	<symbol id="close" viewBox="0 0 20 20" fill="none"><path d="M9.99974 8.82208L14.1246 4.69727L15.3031 5.87577L11.1782 10.0006L15.3031 14.1253L14.1246 15.3038L9.99974 11.1791L5.87496 15.3038L4.69644 14.1253L8.82124 10.0006L4.69644 5.87577L5.87496 4.69727L9.99974 8.82208Z" fill="currentColor"/></symbol>
	<symbol id="pin" viewBox="0 0 40 40" fill="none"><path d="M19.9987 19.1666C18.8936 19.1666 17.8338 18.7277 17.0524 17.9463C16.271 17.1649 15.832 16.105 15.832 15C15.832 13.8949 16.271 12.8351 17.0524 12.0537C17.8338 11.2723 18.8936 10.8333 19.9987 10.8333C21.1038 10.8333 22.1636 11.2723 22.945 12.0537C23.7264 12.8351 24.1654 13.8949 24.1654 15C24.1654 15.5472 24.0576 16.089 23.8482 16.5945C23.6388 17.1 23.3319 17.5593 22.945 17.9463C22.5581 18.3332 22.0987 18.6401 21.5932 18.8495C21.0877 19.0589 20.5459 19.1666 19.9987 19.1666ZM19.9987 3.33331C16.9045 3.33331 13.937 4.56248 11.7491 6.7504C9.56119 8.93832 8.33203 11.9058 8.33203 15C8.33203 23.75 19.9987 36.6666 19.9987 36.6666C19.9987 36.6666 31.6654 23.75 31.6654 15C31.6654 11.9058 30.4362 8.93832 28.2483 6.7504C26.0604 4.56248 23.0929 3.33331 19.9987 3.33331Z" fill="currentColor"/></symbol>
</svg>